<?xml version="1.0" encoding="utf-8"?>
<!-- Generator: Adobe Illustrator 15.1.0, SVG Export Plug-In . SVG Version: 6.00 Build 0)  -->
<!DOCTYPE svg PUBLIC "-//W3C//DTD SVG 1.1 Tiny//EN" "http://www.w3.org/Graphics/SVG/1.1/DTD/svg11-tiny.dtd">
<svg version="1.1" baseProfile="tiny" id="Layer_1" xmlns="http://www.w3.org/2000/svg" xmlns:xlink="http://www.w3.org/1999/xlink"
	 x="0px" y="0px" width="197.887px" height="45.07px" viewBox="0 0 197.887 45.07" overflow="inherit" xml:space="preserve">
<g>
	<path fill="#FFFFFF" d="M11.182,29.136l1.353-2.389c0.23-0.374,0.777-0.316,0.979-0.172c0.115,0.057,2.187,1.583,4.086,1.583
		c1.151,0,1.986-0.719,1.986-1.727c0-1.209-1.007-2.13-2.964-2.907c-2.475-0.979-5.583-2.907-5.583-6.36
		c0-2.849,2.216-5.727,6.648-5.727c2.993,0,5.295,1.525,6.159,2.159c0.345,0.201,0.288,0.719,0.172,0.921l-1.468,2.216
		c-0.201,0.316-0.719,0.576-0.978,0.374c-0.259-0.144-2.36-1.727-4.115-1.727c-1.036,0-1.813,0.69-1.813,1.468
		c0,1.064,0.864,1.871,3.137,2.792c2.245,0.892,5.813,2.647,5.813,6.561c0,2.964-2.561,5.957-6.792,5.957
		c-3.741,0-5.813-1.554-6.475-2.216C11.038,29.654,10.952,29.539,11.182,29.136z"/>
	<path fill="#FFFFFF" d="M36.741,12.272c0-0.288,0.23-0.547,0.546-0.547h11.915c0.316,0,0.546,0.259,0.546,0.547v3.137
		c0,0.288-0.23,0.547-0.546,0.547H41.23v3.568h6.562c0.288,0,0.546,0.259,0.546,0.547v3.137c0,0.316-0.259,0.547-0.546,0.547H41.23
		v3.885h7.972c0.316,0,0.546,0.259,0.546,0.547v3.137c0,0.288-0.23,0.547-0.546,0.547H37.287c-0.316,0-0.546-0.259-0.546-0.547
		V12.272z"/>
	<path fill="#FFFFFF" d="M62.213,11.956c0-0.288,0.259-0.518,0.547-0.518h0.719l11.482,11.051h0.029V12.272
		c0-0.288,0.23-0.547,0.547-0.547h3.453c0.288,0,0.547,0.259,0.547,0.547V31.64c0,0.288-0.259,0.518-0.547,0.518h-0.46
		c-0.086,0-0.316-0.086-0.374-0.144L66.789,20.589H66.76v10.734c0,0.288-0.23,0.547-0.547,0.547h-3.425
		c-0.288,0-0.546-0.259-0.546-0.547L62.213,11.956z"/>
	<path fill="#FFFFFF" d="M93.126,12.272c0-0.288,0.23-0.547,0.518-0.547h7.022c5.554,0,10.101,4.518,10.101,10.043
		c0,5.583-4.547,10.101-10.101,10.101h-7.022c-0.288,0-0.518-0.259-0.518-0.547V12.272z M100.378,27.611
		c3.252,0,5.612-2.561,5.612-5.842c0-3.252-2.36-5.813-5.612-5.813h-2.763v11.655H100.378z"/>
	<path fill="#FFFFFF" d="M122.916,12.272c0-0.288,0.23-0.547,0.546-0.547h6.936c3.54,0,6.446,2.878,6.446,6.36
		c0,3.568-2.906,6.475-6.417,6.475h-3.021v6.763c0,0.288-0.259,0.547-0.547,0.547h-3.396c-0.316,0-0.546-0.259-0.546-0.547V12.272z
		 M130.139,20.359c1.237,0,2.273-0.979,2.273-2.273c0-1.208-1.036-2.129-2.273-2.129h-2.734v4.403H130.139z"/>
	<path fill="#FFFFFF" d="M144.762,31.122l9.008-19.368c0.086-0.173,0.288-0.317,0.489-0.317h0.288c0.201,0,0.402,0.144,0.488,0.317
		l9.008,19.368c0.173,0.374-0.058,0.748-0.489,0.748h-3.194c-0.518,0-0.748-0.173-1.007-0.719l-1.036-2.274h-7.828l-1.035,2.303
		c-0.145,0.345-0.461,0.69-1.036,0.69h-3.166C144.82,31.87,144.589,31.496,144.762,31.122z M156.59,24.963l-2.188-4.749h-0.028
		l-2.158,4.749H156.59z"/>
	<path fill="#FFFFFF" d="M175.042,12.272c0-0.288,0.23-0.547,0.547-0.547h3.425c0.288,0,0.547,0.259,0.547,0.547V27.64h6.849
		c0.317,0,0.547,0.259,0.547,0.547v3.137c0,0.288-0.229,0.547-0.547,0.547h-10.82c-0.316,0-0.547-0.259-0.547-0.547V12.272z"/>
</g>
</svg>
